<svg width="59" height="42" viewBox="0 0 59 42" fill="none" xmlns="http://www.w3.org/2000/svg">
<path d="M17.3145 18.4297V23H2.58398V18.4297H17.3145ZM17.1387 7.17969L5.23828 23H1.17773V19.6953L13.0605 3.98047H17.1387V7.17969ZM15.1875 3.98047V8.55078H1.5293V3.98047H15.1875ZM19.2129 13.6836V13.3145C19.2129 11.9199 19.4121 10.6367 19.8105 9.46484C20.209 8.28125 20.7949 7.25586 21.5684 6.38867C22.3418 5.52148 23.2969 4.84766 24.4336 4.36719C25.5703 3.875 26.8828 3.62891 28.3711 3.62891C29.8711 3.62891 31.1895 3.875 32.3262 4.36719C33.4746 4.84766 34.4355 5.52148 35.209 6.38867C35.9824 7.25586 36.5684 8.28125 36.9668 9.46484C37.3652 10.6367 37.5645 11.9199 37.5645 13.3145V13.6836C37.5645 15.0664 37.3652 16.3496 36.9668 17.5332C36.5684 18.7051 35.9824 19.7305 35.209 20.6094C34.4355 21.4766 33.4805 22.1504 32.3438 22.6309C31.207 23.1113 29.8945 23.3516 28.4062 23.3516C26.918 23.3516 25.5996 23.1113 24.4512 22.6309C23.3027 22.1504 22.3418 21.4766 21.5684 20.6094C20.7949 19.7305 20.209 18.7051 19.8105 17.5332C19.4121 16.3496 19.2129 15.0664 19.2129 13.6836ZM25.1367 13.3145V13.6836C25.1367 14.3984 25.1895 15.0664 25.2949 15.6875C25.4004 16.3086 25.5762 16.8535 25.8223 17.3223C26.0684 17.7793 26.4023 18.1367 26.8242 18.3945C27.2461 18.6523 27.7734 18.7812 28.4062 18.7812C29.0273 18.7812 29.543 18.6523 29.9531 18.3945C30.375 18.1367 30.709 17.7793 30.9551 17.3223C31.2012 16.8535 31.377 16.3086 31.4824 15.6875C31.5879 15.0664 31.6406 14.3984 31.6406 13.6836V13.3145C31.6406 12.623 31.5879 11.9727 31.4824 11.3633C31.377 10.7422 31.2012 10.1973 30.9551 9.72852C30.709 9.24805 30.375 8.87305 29.9531 8.60352C29.5312 8.33398 29.0039 8.19922 28.3711 8.19922C27.75 8.19922 27.2285 8.33398 26.8066 8.60352C26.3965 8.87305 26.0684 9.24805 25.8223 9.72852C25.5762 10.1973 25.4004 10.7422 25.2949 11.3633C25.1895 11.9727 25.1367 12.623 25.1367 13.3145ZM39.4629 13.6836V13.3145C39.4629 11.9199 39.6621 10.6367 40.0605 9.46484C40.459 8.28125 41.0449 7.25586 41.8184 6.38867C42.5918 5.52148 43.5469 4.84766 44.6836 4.36719C45.8203 3.875 47.1328 3.62891 48.6211 3.62891C50.1211 3.62891 51.4395 3.875 52.5762 4.36719C53.7246 4.84766 54.6855 5.52148 55.459 6.38867C56.2324 7.25586 56.8184 8.28125 57.2168 9.46484C57.6152 10.6367 57.8145 11.9199 57.8145 13.3145V13.6836C57.8145 15.0664 57.6152 16.3496 57.2168 17.5332C56.8184 18.7051 56.2324 19.7305 55.459 20.6094C54.6855 21.4766 53.7305 22.1504 52.5938 22.6309C51.457 23.1113 50.1445 23.3516 48.6562 23.3516C47.168 23.3516 45.8496 23.1113 44.7012 22.6309C43.5527 22.1504 42.5918 21.4766 41.8184 20.6094C41.0449 19.7305 40.459 18.7051 40.0605 17.5332C39.6621 16.3496 39.4629 15.0664 39.4629 13.6836ZM45.3867 13.3145V13.6836C45.3867 14.3984 45.4395 15.0664 45.5449 15.6875C45.6504 16.3086 45.8262 16.8535 46.0723 17.3223C46.3184 17.7793 46.6523 18.1367 47.0742 18.3945C47.4961 18.6523 48.0234 18.7812 48.6562 18.7812C49.2773 18.7812 49.793 18.6523 50.2031 18.3945C50.625 18.1367 50.959 17.7793 51.2051 17.3223C51.4512 16.8535 51.627 16.3086 51.7324 15.6875C51.8379 15.0664 51.8906 14.3984 51.8906 13.6836V13.3145C51.8906 12.623 51.8379 11.9727 51.7324 11.3633C51.627 10.7422 51.4512 10.1973 51.2051 9.72852C50.959 9.24805 50.625 8.87305 50.2031 8.60352C49.7812 8.33398 49.2539 8.19922 48.6211 8.19922C48 8.19922 47.4785 8.33398 47.0566 8.60352C46.6465 8.87305 46.3184 9.24805 46.0723 9.72852C45.8262 10.1973 45.6504 10.7422 45.5449 11.3633C45.4395 11.9727 45.3867 12.623 45.3867 13.3145Z" fill="#333333"/>
<path d="M1.46582 35.3418V35.1572C1.46582 34.46 1.56543 33.8184 1.76465 33.2324C1.96387 32.6406 2.25684 32.1279 2.64355 31.6943C3.03027 31.2607 3.50781 30.9238 4.07617 30.6836C4.64453 30.4375 5.30078 30.3145 6.04492 30.3145C6.79492 30.3145 7.4541 30.4375 8.02246 30.6836C8.59668 30.9238 9.07715 31.2607 9.46387 31.6943C9.85059 32.1279 10.1436 32.6406 10.3428 33.2324C10.542 33.8184 10.6416 34.46 10.6416 35.1572V35.3418C10.6416 36.0332 10.542 36.6748 10.3428 37.2666C10.1436 37.8525 9.85059 38.3652 9.46387 38.8047C9.07715 39.2383 8.59961 39.5752 8.03125 39.8154C7.46289 40.0557 6.80664 40.1758 6.0625 40.1758C5.31836 40.1758 4.65918 40.0557 4.08496 39.8154C3.51074 39.5752 3.03027 39.2383 2.64355 38.8047C2.25684 38.3652 1.96387 37.8525 1.76465 37.2666C1.56543 36.6748 1.46582 36.0332 1.46582 35.3418ZM4.42773 35.1572V35.3418C4.42773 35.6992 4.4541 36.0332 4.50684 36.3438C4.55957 36.6543 4.64746 36.9268 4.77051 37.1611C4.89355 37.3896 5.06055 37.5684 5.27148 37.6973C5.48242 37.8262 5.74609 37.8906 6.0625 37.8906C6.37305 37.8906 6.63086 37.8262 6.83594 37.6973C7.04688 37.5684 7.21387 37.3896 7.33691 37.1611C7.45996 36.9268 7.54785 36.6543 7.60059 36.3438C7.65332 36.0332 7.67969 35.6992 7.67969 35.3418V35.1572C7.67969 34.8115 7.65332 34.4863 7.60059 34.1816C7.54785 33.8711 7.45996 33.5986 7.33691 33.3643C7.21387 33.124 7.04688 32.9365 6.83594 32.8018C6.625 32.667 6.36133 32.5996 6.04492 32.5996C5.73438 32.5996 5.47363 32.667 5.2627 32.8018C5.05762 32.9365 4.89355 33.124 4.77051 33.3643C4.64746 33.5986 4.55957 33.8711 4.50684 34.1816C4.4541 34.4863 4.42773 34.8115 4.42773 35.1572ZM16.3091 32.5205V40H13.3472V30.4902H16.1246L16.3091 32.5205ZM15.9576 34.9199L15.2632 34.9375C15.2632 34.2109 15.3511 33.5635 15.5269 32.9951C15.7027 32.4209 15.9517 31.9346 16.274 31.5361C16.5963 31.1377 16.98 30.8359 17.4254 30.6309C17.8765 30.4199 18.3775 30.3145 18.9283 30.3145C19.3677 30.3145 19.7691 30.3789 20.1324 30.5078C20.5015 30.6367 20.8179 30.8447 21.0816 31.1318C21.3511 31.4189 21.5562 31.7998 21.6968 32.2744C21.8433 32.7432 21.9166 33.3232 21.9166 34.0146V40H18.9371V34.0059C18.9371 33.625 18.8843 33.335 18.7789 33.1357C18.6734 32.9307 18.5211 32.79 18.3218 32.7139C18.1226 32.6377 17.8795 32.5996 17.5923 32.5996C17.2877 32.5996 17.0298 32.6582 16.8189 32.7754C16.608 32.8926 16.438 33.0566 16.3091 33.2676C16.1861 33.4727 16.0953 33.7158 16.0367 33.9971C15.9839 34.2783 15.9576 34.5859 15.9576 34.9199ZM28.129 26.5V40H25.1583V26.5H28.129ZM34.5261 30.4902V40H31.5554V30.4902H34.5261ZM31.3796 28.0381C31.3796 27.6162 31.5319 27.2705 31.8366 27.001C32.1413 26.7314 32.5368 26.5967 33.0231 26.5967C33.5095 26.5967 33.905 26.7314 34.2096 27.001C34.5143 27.2705 34.6667 27.6162 34.6667 28.0381C34.6667 28.46 34.5143 28.8057 34.2096 29.0752C33.905 29.3447 33.5095 29.4795 33.0231 29.4795C32.5368 29.4795 32.1413 29.3447 31.8366 29.0752C31.5319 28.8057 31.3796 28.46 31.3796 28.0381ZM40.7034 32.5205V40H37.7414V30.4902H40.5188L40.7034 32.5205ZM40.3518 34.9199L39.6575 34.9375C39.6575 34.2109 39.7454 33.5635 39.9211 32.9951C40.0969 32.4209 40.3459 31.9346 40.6682 31.5361C40.9905 31.1377 41.3743 30.8359 41.8196 30.6309C42.2707 30.4199 42.7717 30.3145 43.3225 30.3145C43.762 30.3145 44.1633 30.3789 44.5266 30.5078C44.8957 30.6367 45.2122 30.8447 45.4758 31.1318C45.7454 31.4189 45.9504 31.7998 46.0911 32.2744C46.2375 32.7432 46.3108 33.3232 46.3108 34.0146V40H43.3313V34.0059C43.3313 33.625 43.2786 33.335 43.1731 33.1357C43.0676 32.9307 42.9153 32.79 42.7161 32.7139C42.5168 32.6377 42.2737 32.5996 41.9866 32.5996C41.6819 32.5996 41.4241 32.6582 41.2131 32.7754C41.0022 32.8926 40.8323 33.0566 40.7034 33.2676C40.5803 33.4727 40.4895 33.7158 40.4309 33.9971C40.3782 34.2783 40.3518 34.5859 40.3518 34.9199ZM53.9998 40.1758C53.2264 40.1758 52.535 40.0557 51.9256 39.8154C51.3162 39.5693 50.8006 39.2324 50.3787 38.8047C49.9627 38.377 49.6434 37.8848 49.4207 37.3281C49.2039 36.7715 49.0955 36.1826 49.0955 35.5615V35.2275C49.0955 34.5303 49.1922 33.8857 49.3855 33.2939C49.5789 32.6963 49.866 32.1748 50.2469 31.7295C50.6277 31.2842 51.1053 30.9385 51.6795 30.6924C52.2537 30.4404 52.9217 30.3145 53.6834 30.3145C54.3572 30.3145 54.9607 30.4229 55.4939 30.6396C56.0271 30.8564 56.4783 31.167 56.8475 31.5713C57.2225 31.9756 57.5066 32.4648 57.7 33.0391C57.8992 33.6133 57.9988 34.2578 57.9988 34.9727V36.1768H50.2293V34.3223H55.1072V34.0938C55.1131 33.7773 55.0574 33.5078 54.9402 33.2852C54.8289 33.0625 54.6648 32.8926 54.448 32.7754C54.2313 32.6582 53.9676 32.5996 53.657 32.5996C53.3348 32.5996 53.0682 32.6699 52.8572 32.8105C52.6521 32.9512 52.491 33.1445 52.3738 33.3906C52.2625 33.6309 52.1834 33.9092 52.1365 34.2256C52.0896 34.542 52.0662 34.876 52.0662 35.2275V35.5615C52.0662 35.9131 52.1131 36.2324 52.2068 36.5195C52.3064 36.8066 52.4471 37.0527 52.6287 37.2578C52.8162 37.457 53.0389 37.6123 53.2967 37.7236C53.5604 37.835 53.8592 37.8906 54.1932 37.8906C54.5975 37.8906 54.9959 37.8145 55.3885 37.6621C55.7811 37.5098 56.118 37.2578 56.3992 36.9062L57.7439 38.5059C57.5506 38.7812 57.2752 39.0479 56.9178 39.3057C56.5662 39.5635 56.1443 39.7744 55.6521 39.9385C55.16 40.0967 54.6092 40.1758 53.9998 40.1758Z" fill="#333333"/>
</svg>
